# xmcd
#
# Track frame offsets: 
#        150
#        15924
#        40608
#        62554
#        82880
#        106853
#        122892
#        147348
#        161594
#        184686
#        199735
#        222080
#        237637
#        258450
#        274060
#
# Disc length: 3854 seconds
#
# Revision: 15
# Processed by: cddbd v1.5.2PL0 Copyright (c) Steve Scherf et al.
# Submitted via: ExactAudioCopyFreeDBPlugin 1.0
#
DISCID=ca0f0c0f
DTITLE=B.B. King - Blues On The Bayou
DYEAR=1998
DGENRE=Blues
TTITLE0=Blues Boys Tune
TTITLE1=Bad Case Of Love
TTITLE2=I'll Survive
TTITLE3=Mean Ole' World
TTITLE4=Blues Man
TTITLE5=Broken Promise
TTITLE6=Darlin' What Happened
TTITLE7=Shake It Up And Go
TTITLE8=Blues We Like
TTITLE9=Good Man Gone Bad
TTITLE10=If I Lost You
TTITLE11=Tell Me Baby
TTITLE12=I Got Some Outside Help I Don't Need
TTITLE13=Blues In "G"
TTITLE14=If That Ain't It I Quit
EXTD=bar code 0 08811 18792 7 YEAR: 1998 ID3G: 0
EXTT0=
EXTT1=
EXTT2=
EXTT3=
EXTT4=
EXTT5=
EXTT6=
EXTT7=
EXTT8=
EXTT9=
EXTT10=
EXTT11=
EXTT12=
EXTT13=
EXTT14=
PLAYORDER=
